<svg xmlns="http://www.w3.org/2000/svg" xmlns:xlink="http://www.w3.org/1999/xlink" xmlns:lucid="lucid" width="1410.58" height="1212.17"><g transform="translate(-1.4739824192308788 -17.64512040557679)" lucid:page-tab-id="0_0"><path d="M0 0h1870.87v1322.84H0z" fill="#fff"/><path d="M365.3 43.65a6 6 0 0 1 6-6h1014.75a6 6 0 0 1 6 6v1160.17a6 6 0 0 1-6 6H371.3a6 6 0 0 1-6-6z" stroke="#3a414a" fill="#c3f7c8"/><use xlink:href="#a" transform="matrix(1,0,0,1,373.2885509083228,45.64512040557679) translate(441.3641975308642 17.77777777777778)"/><use xlink:href="#b" transform="matrix(1,0,0,1,373.2885509083228,45.64512040557679) translate(509.2037037037037 17.77777777777778)"/><path d="M682.98 470.3c0 33.15-35.8 60-80 60-44.18 0-80-26.85-80-60 0-33.13 35.82-60 80-60 44.2 0 80 26.88 80 60z" stroke="#3a414a" fill="#54c45e"/><use xlink:href="#c" transform="matrix(1,0,0,1,522.983523447363,410.3117870722822) translate(25.779999999999994 63.15)"/><use xlink:href="#d" transform="matrix(1,0,0,1,522.983523447363,410.3117870722822) translate(74.38 63.15)"/><use xlink:href="#e" transform="matrix(1,0,0,1,522.983523447363,410.3117870722822) translate(87.28 63.15)"/><path d="M311.24 470.3h210.74" stroke="#3a414a" fill="none"/><path d="M311.25 470.6l-1.44-.8h1.45zM522.48 470.3v.5h-.5v-1h.52z" stroke="#3a414a" stroke-width=".05" fill="#3a414a"/><path d="M678.87 286.2c0 33.14-35.82 60-80 60s-80-26.86-80-60c0-33.13 35.82-60 80-60s80 26.87 80 60z" stroke="#3a414a" fill="#54c45e"/><use xlink:href="#f" transform="matrix(1,0,0,1,518.8694550062983,226.20447824250118) translate(39.605 63.15)"/><use xlink:href="#g" transform="matrix(1,0,0,1,518.8694550062983,226.20447824250118) translate(60.555 63.15)"/><path d="M908.32 230.98c0 33.14-35.82 60-80 60-44.2 0-80-26.86-80-60s35.8-60 80-60c44.18 0 80 26.86 80 60z" stroke="#3a414a" fill="#54c45e"/><use xlink:href="#h" transform="matrix(1,0,0,1,748.3168567806185,170.9784537389101) translate(19.07999999999999 63.15)"/><use xlink:href="#i" transform="matrix(1,0,0,1,748.3168567806185,170.9784537389101) translate(62.98 63.15)"/><use xlink:href="#j" transform="matrix(1,0,0,1,748.3168567806185,170.9784537389101) translate(97.97999999999999 63.15)"/><path d="M1032.32 476.3c0 33.15-35.82 60-80 60-44.2 0-80-26.85-80-60 0-33.13 35.8-60 80-60 44.18 0 80 26.88 80 60z" stroke="#3a414a" fill="#54c45e"/><use xlink:href="#k" transform="matrix(1,0,0,1,872.3168567806188,416.31178707220465) translate(22.130000000000003 63.15)"/><use xlink:href="#l" transform="matrix(1,0,0,1,872.3168567806188,416.31178707220465) translate(69.03 63.15)"/><use xlink:href="#m" transform="matrix(1,0,0,1,872.3168567806188,416.31178707220465) translate(87.98 63.15)"/><path d="M683.98 470.3h171.85" stroke="#3a414a" fill="none"/><path d="M684 470.8h-.53v-.98h.53z" stroke="#3a414a" stroke-width=".05" fill="#3a414a"/><path d="M870.6 470.3l-14.27 4.65v-9.27z" stroke="#3a414a" fill="#3a414a"/><path d="M861.58 286.6l2.28 4.33m2.3 4.33l4.55 8.66m2.3 4.33l4.56 8.66m2.28 4.34l4.57 8.66m2.3 4.33l4.56 8.66m2.28 4.32l4.57 8.66m2.3 4.33l4.56 8.67m2.28 4.33l4.57 8.66m2.3 4.33l4.55 8.65m2.3 4.33l2.27 4.33" stroke="#3a414a" fill="none"/><path d="M862.03 286.37l-.9.47-.26-.5.95-.36z" stroke="#3a414a" stroke-width=".05" fill="#3a414a"/><path d="M930.1 416.58l-10.75-10.46 8.2-4.32z" stroke="#3a414a" fill="#3a414a"/><path d="M774.72 276.68l-3.03 3.75m-3.04 3.75l-6.06 7.5m-3.03 3.74l-6.06 7.5m-3.02 3.75l-6.06 7.5m-3.03 3.75l-6.06 7.5m-3.03 3.75l-6.05 7.5m-3.03 3.74l-6.06 7.5m-3.03 3.76l-6.06 7.5m-3.03 3.75l-6.06 7.5m-3.02 3.75l-6.06 7.5m-3.03 3.75l-6.06 7.5m-3.02 3.75l-6.06 7.5m-3.03 3.75l-3.04 3.75" stroke="#3a414a" fill="none"/><path d="M775.45 276.57l-.35.43-.78-.63.3-.36z" stroke="#3a414a" stroke-width=".05" fill="#3a414a"/><path d="M656.38 423.13l5.36-14 7.2 5.82z" stroke="#3a414a" fill="#3a414a"/><path d="M1306.98 336.3c0 33.15-35.8 60-80 60-44.18 0-80-26.85-80-60 0-33.13 35.82-60 80-60 44.2 0 80 26.88 80 60z" stroke="#3a414a" fill="#54c45e"/><use xlink:href="#n" transform="matrix(1,0,0,1,1146.983523447363,276.31178707220465) translate(41.10499999999999 51.9)"/><use xlink:href="#o" transform="matrix(1,0,0,1,1146.983523447363,276.31178707220465) translate(114.95500000000001 51.9)"/><use xlink:href="#p" transform="matrix(1,0,0,1,1146.983523447363,276.31178707220465) translate(38.07999999999999 73.5)"/><use xlink:href="#q" transform="matrix(1,0,0,1,1146.983523447363,276.31178707220465) translate(94.93 73.5)"/><use xlink:href="#r" transform="matrix(1,0,0,1,1146.983523447363,276.31178707220465) translate(104.93 73.5)"/><path d="M1159.93 370.5l-4.68 2.38m-4.68 2.38l-9.37 4.78m-4.68 2.38l-9.36 4.77m-4.68 2.38l-9.37 4.77m-4.67 2.4l-9.36 4.76m-4.68 2.4l-9.38 4.77m-4.68 2.4l-9.36 4.76m-4.7 2.4l-9.35 4.76m-4.68 2.38l-9.37 4.77m-4.68 2.4l-4.68 2.37" stroke="#3a414a" fill="none"/><path d="M1160.72 370.65l-.57.3-.46-.9.33-.17z" stroke="#3a414a" stroke-width=".05" fill="#3a414a"/><path d="M1020.37 441.63l10.6-10.6 4.2 8.25z" stroke="#3a414a" fill="#3a414a"/><path d="M1133.65 230.98c0 33.14-35.82 60-80 60s-80-26.86-80-60 35.82-60 80-60 80 26.86 80 60z" stroke="#3a414a" fill="#54c45e"/><use xlink:href="#s" transform="matrix(1,0,0,1,973.650190113874,170.9784537389101) translate(47.555 63.15)"/><use xlink:href="#t" transform="matrix(1,0,0,1,973.650190113874,170.9784537389101) translate(73.505 63.15)"/><path d="M1037.44 290.7l-1.3 5.1m-1.3 5.1l-2.6 10.18m-1.3 5.1l-2.62 10.18m-1.3 5.1l-2.6 10.18m-1.3 5.1l-2.6 10.18m-1.3 5.1l-2.6 10.18m-1.3 5.1l-2.62 10.2m-1.3 5.08l-2.6 10.2m-1.3 5.08l-1.3 5.1" stroke="#3a414a" fill="none"/><path d="M1038.06 290.3l-.14.54-.97-.25.1-.46z" stroke="#3a414a" stroke-width=".05" fill="#3a414a"/><path d="M1002.54 427.26l-.96-14.97 8.98 2.3z" stroke="#3a414a" fill="#3a414a"/><path d="M1032.32 660.3c0 33.15-35.82 60-80 60-44.2 0-80-26.85-80-60 0-33.13 35.8-60 80-60 44.18 0 80 26.88 80 60z" stroke="#3a414a" fill="#54c45e"/><use xlink:href="#u" transform="matrix(1,0,0,1,872.3168567806188,600.3117870722047) translate(11.179999999999987 63.15)"/><use xlink:href="#l" transform="matrix(1,0,0,1,872.3168567806188,600.3117870722047) translate(79.98 63.15)"/><use xlink:href="#m" transform="matrix(1,0,0,1,872.3168567806188,600.3117870722047) translate(98.93 63.15)"/><path d="M952.32 537.3v46.13" stroke="#3a414a" fill="none"/><path d="M952.3 536.8h.52v.53h-1v-.53z" stroke="#3a414a" stroke-width=".05" fill="#3a414a"/><path d="M952.32 598.2l-4.64-14.27h9.27z" stroke="#3a414a" fill="#3a414a"/><path d="M682.98 826.35c0 34.9-35.8 63.2-80 63.2-44.18 0-80-28.3-80-63.2 0-34.9 35.82-63.2 80-63.2 44.2 0 80 28.3 80 63.2z" stroke="#3a414a" fill="#54c45e"/><use xlink:href="#v" transform="matrix(1,0,0,1,522.983523447363,763.1444549050611) translate(43.529999999999994 58.05625)"/><use xlink:href="#o" transform="matrix(1,0,0,1,522.983523447363,763.1444549050611) translate(112.53 58.05625)"/><use xlink:href="#w" transform="matrix(1,0,0,1,522.983523447363,763.1444549050611) translate(46.07999999999999 79.65625)"/><path d="M678.87 644.07c0 33.13-35.82 60-80 60s-80-26.87-80-60c0-33.14 35.82-60 80-60s80 26.86 80 60z" stroke="#3a414a" fill="#54c45e"/><use xlink:href="#x" transform="matrix(1,0,0,1,518.8694550062983,584.0680577704084) translate(43.55499999999999 51.9)"/><use xlink:href="#y" transform="matrix(1,0,0,1,518.8694550062983,584.0680577704084) translate(108.555 51.9)"/><use xlink:href="#z" transform="matrix(1,0,0,1,518.8694550062983,584.0680577704084) translate(43.05499999999999 73.5)"/><path d="M598.87 705.07v4.6m0 4.58v9.18m0 4.6v9.18m0 4.6v4.6" stroke="#3a414a" fill="none"/><path d="M598.86 704.57h.5v.5h-1v-.52z" stroke="#3a414a" stroke-width=".05" fill="#3a414a"/><path d="M598.87 761.16l-4.64-14.27h9.27z" stroke="#3a414a" fill="#3a414a"/><path d="M682.98 1047.15c0 33.14-35.8 60-80 60-44.18 0-80-26.86-80-60s35.82-60 80-60c44.2 0 80 26.87 80 60z" stroke="#3a414a" fill="#54c45e"/><use xlink:href="#A" transform="matrix(1,0,0,1,522.983523447363,987.1520411498925) translate(25.729999999999997 63.15)"/><use xlink:href="#B" transform="matrix(1,0,0,1,522.983523447363,987.1520411498925) translate(76.33 63.15)"/><path d="M957.1 1047.15c0 33.14-35.8 60-80 60-44.18 0-80-26.86-80-60s35.82-60 80-60c44.2 0 80 26.87 80 60z" stroke="#3a414a" fill="#54c45e"/><use xlink:href="#C" transform="matrix(1,0,0,1,797.1076681756585,987.1520411498925) translate(40.55499999999999 40.65)"/><use xlink:href="#D" transform="matrix(1,0,0,1,797.1076681756585,987.1520411498925) translate(105.505 40.65)"/><use xlink:href="#E" transform="matrix(1,0,0,1,797.1076681756585,987.1520411498925) translate(59.555 62.25)"/><use xlink:href="#F" transform="matrix(1,0,0,1,797.1076681756585,987.1520411498925) translate(29.054999999999996 83.85000000000001)"/><path d="M683.98 1047.15h96.24" stroke="#3a414a" fill="none"/><path d="M684 1047.65h-.53v-1h.53z" stroke="#3a414a" stroke-width=".05" fill="#3a414a"/><path d="M795 1047.15l-14.28 4.64v-9.28z" stroke="#3a414a" fill="#3a414a"/><path d="M1330.45 660.3c0 33.15-35.8 60-80 60-44.18 0-80-26.85-80-60 0-33.13 35.82-60 80-60 44.2 0 80 26.88 80 60z" stroke="#3a414a" fill="#54c45e"/><use xlink:href="#G" transform="matrix(1,0,0,1,1170.4545838613894,600.3117870722047) translate(35.605 63.15)"/><use xlink:href="#H" transform="matrix(1,0,0,1,1170.4545838613894,600.3117870722047) translate(78.555 63.15)"/><use xlink:href="#I" transform="matrix(1,0,0,1,1170.4545838613894,600.3117870722047) translate(87.505 63.15)"/><path d="M1183.15 626.4l-4.1-3.07m-4.12-3.06l-8.2-6.12m-4.12-3.06l-8.2-6.13m-4.12-3.06l-8.2-6.1m-4.12-3.07l-8.22-6.12m-4.1-3.05l-8.22-6.12m-4.1-3.06l-8.23-6.12m-4.12-3.06l-8.2-6.13m-4.12-3.06l-8.22-6.1m-4.1-3.07l-8.22-6.12m-4.1-3.05l-8.23-6.12m-4.12-3.06l-8.2-6.12m-4.12-3.06l-4.1-3.07" stroke="#3a414a" fill="none"/><path d="M1183.88 626.3l-.66.77-.38-.3.6-.8z" stroke="#3a414a" stroke-width=".05" fill="#3a414a"/><path d="M1023.4 507.4l14.22 4.8-5.54 7.45z" stroke="#3a414a" fill="#3a414a"/><path d="M1185.7 696.83l-9.55 2.52m-9.54 2.52l-19.06 5.04m-9.54 2.53l-19.08 5.04m-9.54 2.52l-19.08 5.03m-9.53 2.52l-19.08 5.04m-9.55 2.5l-19.08 5.05m-9.54 2.52l-19.07 5.04m-9.54 2.53l-19.08 5.04m-9.54 2.52l-19.07 5.04m-9.54 2.5l-19.1 5.06m-9.53 2.52L890 774.96m-9.54 2.52l-19.08 5.04m-9.54 2.52l-19.08 5.04m-9.53 2.52l-19.08 5.04m-9.54 2.52l-19.07 5.04m-9.54 2.52l-19.08 5.04m-9.54 2.52l-19.08 5.04m-9.54 2.52l-9.54 2.52" stroke="#3a414a" fill="none"/><path d="M1186.58 697.1l-.78.2-.25-.95.2-.06z" stroke="#3a414a" stroke-width=".05" fill="#3a414a"/><path d="M684.95 829.14l12.6-8.13 2.38 8.97z" stroke="#3a414a" fill="#3a414a"/><path d="M330.18 530.3c5.4 0 9.8-4.35 9.8-9.64v-1.13c-3.97-30.54-21.35-55.34-55-55.34-33.67 0-51.5 21.02-54.9 55.4-.1 0-.1.07-.1.07-.45 5.35 3.5 10.1 8.9 10.64h91.3z" stroke="#000" stroke-opacity="0" fill="url(#J)"/><path d="M284.94 471.48c-6.2 0-11.5-1.55-16.7-4.9l16.7 42.85 16.42-42.58c-5.16 3.2-10.33 4.67-16.42 4.63z" stroke="#000" stroke-opacity="0" fill="#fff" fill-opacity=".8"/><path d="M315.88 440.85c0 16.86-13.8 30.54-30.8 30.54s-30.8-13.7-30.8-30.55c0-16.86 13.8-30.54 30.8-30.54s30.8 13.7 30.8 30.55z" stroke="#000" stroke-opacity="0" fill="url(#K)"/><use xlink:href="#L" transform="matrix(1,0,0,1,199.97162055633447,539.3117870722822) translate(58.525 14.4)"/><path d="M121.68 964.1c5.4 0 9.8-4.36 9.8-9.64v-1.13c-3.97-30.55-21.35-55.34-55-55.34-33.67 0-51.5 21-54.9 55.4-.1 0-.1.06-.1.06-.45 5.36 3.5 10.12 8.9 10.65h91.3z" stroke="#000" stroke-opacity="0" fill="url(#M)"/><path d="M76.44 905.27c-6.2 0-11.5-1.54-16.7-4.88l16.7 42.83 16.42-42.6c-5.16 3.23-10.33 4.7-16.42 4.64z" stroke="#000" stroke-opacity="0" fill="#fff" fill-opacity=".8"/><path d="M107.38 874.65c0 16.86-13.8 30.54-30.8 30.54s-30.8-13.7-30.8-30.55c0-16.86 13.8-30.54 30.8-30.54s30.8 13.7 30.8 30.55z" stroke="#000" stroke-opacity="0" fill="url(#N)"/><use xlink:href="#O" transform="matrix(1,0,0,1,-8.526017580769121,973.1081794192809) translate(76.5 14.4)"/><path d="M330.18 1107.15c5.4 0 9.8-4.36 9.8-9.65v-1.13c-3.97-30.54-21.35-55.34-55-55.34-33.67 0-51.5 21.03-54.9 55.4-.1 0-.1.08-.1.08-.45 5.36 3.5 10.12 8.9 10.65h91.3z" stroke="#000" stroke-opacity="0" fill="url(#P)"/><path d="M284.94 1048.32c-6.2 0-11.5-1.55-16.7-4.9l16.7 42.85 16.42-42.58c-5.16 3.2-10.33 4.66-16.42 4.62z" stroke="#000" stroke-opacity="0" fill="#fff" fill-opacity=".8"/><path d="M315.88 1017.7c0 16.85-13.8 30.53-30.8 30.53s-30.8-13.68-30.8-30.54c0-16.87 13.8-30.55 30.8-30.55s30.8 13.68 30.8 30.54z" stroke="#000" stroke-opacity="0" fill="url(#Q)"/><use xlink:href="#R" transform="matrix(1,0,0,1,199.97162055633447,1116.1520411498925) translate(27.449999999999996 14.4)"/><path d="M311.24 1047.15h210.74" stroke="#3a414a" fill="none"/><path d="M311.25 1047.43l-1.44-.78h1.45zM522.48 1047.14v.5h-.5v-1h.52z" stroke="#3a414a" stroke-width=".05" fill="#3a414a"/><path d="M330.18 886.35c5.4 0 9.8-4.37 9.8-9.66v-1.13c-3.97-30.55-21.35-55.34-55-55.34-33.67 0-51.5 21.02-54.9 55.4-.1 0-.1.07-.1.07-.45 5.36 3.5 10.12 8.9 10.65h91.3z" stroke="#000" stroke-opacity="0" fill="url(#S)"/><path d="M284.94 827.5c-6.2 0-11.5-1.53-16.7-4.87l16.7 42.84 16.42-42.6c-5.16 3.23-10.33 4.68-16.42 4.64z" stroke="#000" stroke-opacity="0" fill="#fff" fill-opacity=".8"/><path d="M315.88 796.9c0 16.85-13.8 30.53-30.8 30.53s-30.8-13.68-30.8-30.54c0-16.87 13.8-30.55 30.8-30.55s30.8 13.68 30.8 30.54z" stroke="#000" stroke-opacity="0" fill="url(#T)"/><use xlink:href="#U" transform="matrix(1,0,0,1,199.97162055633447,895.3472549883236) translate(54.574999999999996 14.4)"/><path d="M102.68 903.9l140.4-70.23" stroke="#3a414a" fill="none"/><path d="M102.92 904.33l-.14.07-1.08-.58.77-.4z" stroke="#3a414a" stroke-width=".05" fill="#3a414a"/><path d="M256.3 827.07l-10.7 10.53-4.14-8.3z" stroke="#3a414a" fill="#3a414a"/><path d="M102.6 904.45l143.08 131.6" stroke="#3a414a" fill="none"/><path d="M102.7 904.36l-.42.46-1.82-1.67z" stroke="#3a414a" stroke-width=".05" fill="#3a414a"/><path d="M256.55 1046.06l-13.64-6.25 6.28-6.8z" stroke="#3a414a" fill="#3a414a"/><path d="M311.24 826.35h210.74" stroke="#3a414a" fill="none"/><path d="M311.25 826.62l-1.44-.77h1.45zM522.48 826.34v.51h-.5v-1h.52z" stroke="#3a414a" stroke-width=".05" fill="#3a414a"/><path d="M598.87 347.2v5.16m0 5.14v10.3m0 5.16v10.3m0 5.15v5.16" stroke="#3a414a" fill="none"/><path d="M598.86 346.7h.5v.52h-1v-.53z" stroke="#3a414a" stroke-width=".05" fill="#3a414a"/><path d="M598.87 408.32l-4.64-14.26h9.27z" stroke="#3a414a" fill="#3a414a"/><path d="M546.66 125.64c0 33.14-35.82 60-80 60s-80-26.86-80-60 35.82-60 80-60 80 26.86 80 60z" stroke="#3a414a" fill="#54c45e"/><g><use xlink:href="#V" transform="matrix(1,0,0,1,386.6599070553655,65.63920574571134) translate(58.029999999999994 63.15)"/></g><path d="M509.33 177.46l3.07 3.72m3.06 3.73l6.13 7.45m3.05 3.72l6.13 7.44m3.07 3.73l6.12 7.45m3.07 3.72l3.06 3.72" stroke="#3a414a" fill="none"/><path d="M509.73 177.16l-.78.63-.4-.5.94-.43z" stroke="#3a414a" stroke-width=".05" fill="#3a414a"/><path d="M555.5 233.52l-12.66-8.07 7.16-5.9z" stroke="#3a414a" fill="#3a414a"/><path d="M755.14 125.64c0 33.14-35.82 60-80 60s-80-26.86-80-60 35.82-60 80-60 80 26.86 80 60z" stroke="#3a414a" fill="#54c45e"/><g><use xlink:href="#W" transform="matrix(1,0,0,1,595.1381495563546,65.63920574571134) translate(48.055 63.15)"/><use xlink:href="#X" transform="matrix(1,0,0,1,595.1381495563546,65.63920574571134) translate(89.005 63.15)"/></g><path d="M647.86 183.06l-2.48 5.23m-2.5 5.22l-4.95 10.46m-2.5 5.23l-2.47 5.24" stroke="#3a414a" fill="none"/><path d="M648.57 182.75l-.26.53-.9-.42.2-.4z" stroke="#3a414a" stroke-width=".05" fill="#3a414a"/><path d="M626.62 227.78l1.94-14.88 8.37 3.98z" stroke="#3a414a" fill="#3a414a"/><path d="M1306.98 960.93c0 33.14-35.8 60-80 60-44.18 0-80-26.86-80-60 0-33.13 35.82-60 80-60 44.2 0 80 26.87 80 60z" stroke="#3a414a" fill="#54c45e"/><g><use xlink:href="#Y" transform="matrix(1,0,0,1,1146.983523447363,900.9318645450517) translate(48.529999999999994 29.4)"/><use xlink:href="#Z" transform="matrix(1,0,0,1,1146.983523447363,900.9318645450517) translate(91.48 29.4)"/><use xlink:href="#aa" transform="matrix(1,0,0,1,1146.983523447363,900.9318645450517) translate(16.604999999999997 51)"/><use xlink:href="#ab" transform="matrix(1,0,0,1,1146.983523447363,900.9318645450517) translate(83.555 51)"/><use xlink:href="#ac" transform="matrix(1,0,0,1,1146.983523447363,900.9318645450517) translate(102.50500000000001 51)"/><use xlink:href="#ad" transform="matrix(1,0,0,1,1146.983523447363,900.9318645450517) translate(45.504999999999995 72.60000000000001)"/><use xlink:href="#ae" transform="matrix(1,0,0,1,1146.983523447363,900.9318645450517) translate(39.580000000000005 94.20000000000002)"/></g><path d="M1150.07 980.05l-9.84 3.43m-9.83 3.43l-19.66 6.87m-9.84 3.43l-19.66 6.85m-9.84 3.43l-19.66 6.86m-9.83 3.42l-19.66 6.86m-9.83 3.43l-19.66 6.85m-9.83 3.43l-9.82 3.43" stroke="#3a414a" fill="none"/><path d="M1150.74 980.35l-.52.18-.33-.94.44-.17z" stroke="#3a414a" stroke-width=".05" fill="#3a414a"/><path d="M959.14 1046.62l11.94-9.07 3.05 8.75z" stroke="#3a414a" fill="#3a414a"/><defs><path fill="#3a414a" d="M127-220V0H93v-220H8v-28h204v28h-85" id="af"/><path fill="#3a414a" d="M33 0v-38h34V0H33" id="ag"/><path fill="#3a414a" d="M205 0l-28-72H64L36 0H1l101-248h38L239 0h-34zm-38-99l-47-123c-12 45-31 82-46 123h93" id="ah"/><path fill="#3a414a" d="M143 4C61 4 22-44 18-125c-5-107 100-154 193-111 17 8 29 25 37 43l-32 9c-13-25-37-40-76-40-61 0-88 39-88 99 0 61 29 100 91 101 35 0 62-11 79-27v-45h-74v-28h105v86C228-13 192 4 143 4" id="ai"/><g id="a"><use transform="matrix(0.06172839506172839,0,0,0.06172839506172839,0,0)" xlink:href="#af"/><use transform="matrix(0.06172839506172839,0,0,0.06172839506172839,11.049382716049381,0)" xlink:href="#ag"/><use transform="matrix(0.06172839506172839,0,0,0.06172839506172839,17.22222222222222,0)" xlink:href="#ah"/><use transform="matrix(0.06172839506172839,0,0,0.06172839506172839,32.03703703703704,0)" xlink:href="#ag"/><use transform="matrix(0.06172839506172839,0,0,0.06172839506172839,38.20987654320988,0)" xlink:href="#ai"/><use transform="matrix(0.06172839506172839,0,0,0.06172839506172839,55.49382716049383,0)" xlink:href="#ag"/></g><path fill="#3a414a" d="M141-36C126-15 110 5 73 4 37 3 15-17 15-53c-1-64 63-63 125-63 3-35-9-54-41-54-24 1-41 7-42 31l-33-3c5-37 33-52 76-52 45 0 72 20 72 64v82c-1 20 7 32 28 27v20c-31 9-61-2-59-35zM48-53c0 20 12 33 32 33 41-3 63-29 60-74-43 2-92-5-92 41" id="aj"/><path fill="#3a414a" d="M210-169c-67 3-38 105-44 169h-31v-121c0-29-5-50-35-48C34-165 62-65 56 0H25l-1-190h30c1 10-1 24 2 32 10-44 99-50 107 0 11-21 27-35 58-36 85-2 47 119 55 194h-31v-121c0-29-5-49-35-48" id="ak"/><path fill="#3a414a" d="M100-194c63 0 86 42 84 106H49c0 40 14 67 53 68 26 1 43-12 49-29l28 8c-11 28-37 45-77 45C44 4 14-33 15-96c1-61 26-98 85-98zm52 81c6-60-76-77-97-28-3 7-6 17-6 28h103" id="al"/><g id="b"><use transform="matrix(0.06172839506172839,0,0,0.06172839506172839,0,0)" xlink:href="#ai"/><use transform="matrix(0.06172839506172839,0,0,0.06172839506172839,17.28395061728395,0)" xlink:href="#aj"/><use transform="matrix(0.06172839506172839,0,0,0.06172839506172839,29.629629629629626,0)" xlink:href="#ak"/><use transform="matrix(0.06172839506172839,0,0,0.06172839506172839,48.08641975308642,0)" xlink:href="#al"/></g><path d="M205 0l-28-72H64L36 0H1l101-248h38L239 0h-34zm-38-99l-47-123c-12 45-31 82-46 123h93" id="am"/><path d="M108 0H70L1-190h34L89-25l56-165h34" id="an"/><path d="M24-231v-30h32v30H24zM24 0v-190h32V0H24" id="ao"/><path d="M141-36C126-15 110 5 73 4 37 3 15-17 15-53c-1-64 63-63 125-63 3-35-9-54-41-54-24 1-41 7-42 31l-33-3c5-37 33-52 76-52 45 0 72 20 72 64v82c-1 20 7 32 28 27v20c-31 9-61-2-59-35zM48-53c0 20 12 33 32 33 41-3 63-29 60-74-43 2-92-5-92 41" id="ap"/><g id="c"><use transform="matrix(0.05,0,0,0.05,0,0)" xlink:href="#am"/><use transform="matrix(0.05,0,0,0.05,11.65,0)" xlink:href="#an"/><use transform="matrix(0.05,0,0,0.05,20.65,0)" xlink:href="#an"/><use transform="matrix(0.05,0,0,0.05,29.649999999999995,0)" xlink:href="#ao"/><use transform="matrix(0.05,0,0,0.05,33.6,0)" xlink:href="#ap"/></g><path d="M24 0v-261h32V0H24" id="aq"/><g id="d"><use transform="matrix(0.05,0,0,0.05,0,0)" xlink:href="#ao"/><use transform="matrix(0.05,0,0,0.05,3.95,0)" xlink:href="#aq"/></g><path d="M143 4C61 4 22-44 18-125c-5-107 100-154 193-111 17 8 29 25 37 43l-32 9c-13-25-37-40-76-40-61 0-88 39-88 99 0 61 29 100 91 101 35 0 62-11 79-27v-45h-74v-28h105v86C228-13 192 4 143 4" id="ar"/><path d="M100-194c62-1 85 37 85 99 1 63-27 99-86 99S16-35 15-95c0-66 28-99 85-99zM99-20c44 1 53-31 53-75 0-43-8-75-51-75s-53 32-53 75 10 74 51 75" id="as"/><path d="M96-169c-40 0-48 33-48 73s9 75 48 75c24 0 41-14 43-38l32 2c-6 37-31 61-74 61-59 0-76-41-82-99-10-93 101-131 147-64 4 7 5 14 7 22l-32 3c-4-21-16-35-41-35" id="at"/><g id="e"><use transform="matrix(0.05,0,0,0.05,0,0)" xlink:href="#ar"/><use transform="matrix(0.05,0,0,0.05,14,0)" xlink:href="#ao"/><use transform="matrix(0.05,0,0,0.05,17.95,0)" xlink:href="#as"/><use transform="matrix(0.05,0,0,0.05,27.950000000000003,0)" xlink:href="#at"/><use transform="matrix(0.05,0,0,0.05,36.95,0)" xlink:href="#as"/></g><path d="M185-189c-5-48-123-54-124 2 14 75 158 14 163 119 3 78-121 87-175 55-17-10-28-26-33-46l33-7c5 56 141 63 141-1 0-78-155-14-162-118-5-82 145-84 179-34 5 7 8 16 11 25" id="au"/><g id="f"><use transform="matrix(0.05,0,0,0.05,0,0)" xlink:href="#au"/><use transform="matrix(0.05,0,0,0.05,12,0)" xlink:href="#ao"/></g><path d="M114-163C36-179 61-72 57 0H25l-1-190h30c1 12-1 29 2 39 6-27 23-49 58-41v29" id="av"/><path d="M100-194c63 0 86 42 84 106H49c0 40 14 67 53 68 26 1 43-12 49-29l28 8c-11 28-37 45-77 45C44 4 14-33 15-96c1-61 26-98 85-98zm52 81c6-60-76-77-97-28-3 7-6 17-6 28h103" id="aw"/><path d="M177-190C167-65 218 103 67 71c-23-6-38-20-44-43l32-5c15 47 100 32 89-28v-30C133-14 115 1 83 1 29 1 15-40 15-95c0-56 16-97 71-98 29-1 48 16 59 35 1-10 0-23 2-32h30zM94-22c36 0 50-32 50-73 0-42-14-75-50-75-39 0-46 34-46 75s6 73 46 73" id="ax"/><path d="M135-143c-3-34-86-38-87 0 15 53 115 12 119 90S17 21 10-45l28-5c4 36 97 45 98 0-10-56-113-15-118-90-4-57 82-63 122-42 12 7 21 19 24 35" id="ay"/><path d="M59-47c-2 24 18 29 38 22v24C64 9 27 4 27-40v-127H5v-23h24l9-43h21v43h35v23H59v120" id="az"/><g id="g"><use transform="matrix(0.05,0,0,0.05,0,0)" xlink:href="#av"/><use transform="matrix(0.05,0,0,0.05,5.95,0)" xlink:href="#aw"/><use transform="matrix(0.05,0,0,0.05,15.949999999999998,0)" xlink:href="#ax"/><use transform="matrix(0.05,0,0,0.05,25.950000000000003,0)" xlink:href="#ao"/><use transform="matrix(0.05,0,0,0.05,29.899999999999995,0)" xlink:href="#ay"/><use transform="matrix(0.05,0,0,0.05,38.9,0)" xlink:href="#az"/><use transform="matrix(0.05,0,0,0.05,43.9,0)" xlink:href="#av"/><use transform="matrix(0.05,0,0,0.05,49.85,0)" xlink:href="#ap"/></g><path d="M212-179c-10-28-35-45-73-45-59 0-87 40-87 99 0 60 29 101 89 101 43 0 62-24 78-52l27 14C228-24 195 4 139 4 59 4 22-46 18-125c-6-104 99-153 187-111 19 9 31 26 39 46" id="aA"/><g id="h"><use transform="matrix(0.05,0,0,0.05,0,0)" xlink:href="#aA"/><use transform="matrix(0.05,0,0,0.05,12.950000000000001,0)" xlink:href="#av"/><use transform="matrix(0.05,0,0,0.05,18.900000000000002,0)" xlink:href="#aw"/><use transform="matrix(0.05,0,0,0.05,28.900000000000002,0)" xlink:href="#ap"/></g><path d="M84 4C-5 8 30-112 23-190h32v120c0 31 7 50 39 49 72-2 45-101 50-169h31l1 190h-30c-1-10 1-25-2-33-11 22-28 36-60 37" id="aB"/><path d="M117-194c89-4 53 116 60 194h-32v-121c0-31-8-49-39-48C34-167 62-67 57 0H25l-1-190h30c1 10-1 24 2 32 11-22 29-35 61-36" id="aC"/><g id="i"><use transform="matrix(0.05,0,0,0.05,0,0)" xlink:href="#aB"/><use transform="matrix(0.05,0,0,0.05,10,0)" xlink:href="#aC"/><use transform="matrix(0.05,0,0,0.05,20,0)" xlink:href="#ap"/></g><path d="M115-194c53 0 69 39 70 98 0 66-23 100-70 100C84 3 66-7 56-30L54 0H23l1-261h32v101c10-23 28-34 59-34zm-8 174c40 0 45-34 45-75 0-40-5-75-45-74-42 0-51 32-51 76 0 43 10 73 51 73" id="aD"/><path d="M179-190L93 31C79 59 56 82 12 73V49c39 6 53-20 64-50L1-190h34L92-34l54-156h33" id="aE"/><g id="j"><use transform="matrix(0.05,0,0,0.05,0,0)" xlink:href="#aq"/><use transform="matrix(0.05,0,0,0.05,3.95,0)" xlink:href="#as"/><use transform="matrix(0.05,0,0,0.05,13.949999999999998,0)" xlink:href="#aD"/><use transform="matrix(0.05,0,0,0.05,23.95,0)" xlink:href="#aD"/><use transform="matrix(0.05,0,0,0.05,33.95,0)" xlink:href="#aE"/></g><path d="M33 0v-248h34V0H33" id="aF"/><path d="M9 0v-24l116-142H16v-24h144v24L44-24h123V0H9" id="aG"/><g id="k"><use transform="matrix(0.05,0,0,0.05,0,0)" xlink:href="#aF"/><use transform="matrix(0.05,0,0,0.05,5,0)" xlink:href="#aC"/><use transform="matrix(0.05,0,0,0.05,15,0)" xlink:href="#ao"/><use transform="matrix(0.05,0,0,0.05,18.95,0)" xlink:href="#aG"/><use transform="matrix(0.05,0,0,0.05,27.950000000000003,0)" xlink:href="#ao"/><use transform="matrix(0.05,0,0,0.05,31.899999999999995,0)" xlink:href="#ap"/></g><g id="l"><use transform="matrix(0.05,0,0,0.05,0,0)" xlink:href="#aq"/><use transform="matrix(0.05,0,0,0.05,3.95,0)" xlink:href="#ap"/></g><path d="M115-194c55 1 70 41 70 98S169 2 115 4C84 4 66-9 55-30l1 105H24l-1-265h31l2 30c10-21 28-34 59-34zm-8 174c40 0 45-34 45-75s-6-73-45-74c-42 0-51 32-51 76 0 43 10 73 51 73" id="aH"/><g id="m"><use transform="matrix(0.05,0,0,0.05,0,0)" xlink:href="#aH"/><use transform="matrix(0.05,0,0,0.05,10,0)" xlink:href="#ap"/><use transform="matrix(0.05,0,0,0.05,20,0)" xlink:href="#av"/><use transform="matrix(0.05,0,0,0.05,25.950000000000003,0)" xlink:href="#az"/><use transform="matrix(0.05,0,0,0.05,30.950000000000003,0)" xlink:href="#ao"/><use transform="matrix(0.05,0,0,0.05,34.9,0)" xlink:href="#az"/><use transform="matrix(0.05,0,0,0.05,39.9,0)" xlink:href="#ap"/></g><g id="n"><use transform="matrix(0.05,0,0,0.05,0,0)" xlink:href="#aA"/><use transform="matrix(0.05,0,0,0.05,12.950000000000001,0)" xlink:href="#as"/><use transform="matrix(0.05,0,0,0.05,22.950000000000003,0)" xlink:href="#aq"/><use transform="matrix(0.05,0,0,0.05,26.900000000000002,0)" xlink:href="#aH"/><use transform="matrix(0.05,0,0,0.05,36.900000000000006,0)" xlink:href="#ao"/><use transform="matrix(0.05,0,0,0.05,40.85000000000001,0)" xlink:href="#ay"/><use transform="matrix(0.05,0,0,0.05,49.85000000000001,0)" xlink:href="#at"/><use transform="matrix(0.05,0,0,0.05,58.85,0)" xlink:href="#aw"/></g><use transform="matrix(0.05,0,0,0.05,0,0)" xlink:href="#ao" id="o"/><path d="M210-169c-67 3-38 105-44 169h-31v-121c0-29-5-50-35-48C34-165 62-65 56 0H25l-1-190h30c1 10-1 24 2 32 10-44 99-50 107 0 11-21 27-35 58-36 85-2 47 119 55 194h-31v-121c0-29-5-49-35-48" id="aI"/><g id="p"><use transform="matrix(0.05,0,0,0.05,0,0)" xlink:href="#aC"/><use transform="matrix(0.05,0,0,0.05,10,0)" xlink:href="#aw"/><use transform="matrix(0.05,0,0,0.05,20,0)" xlink:href="#aI"/><use transform="matrix(0.05,0,0,0.05,34.95,0)" xlink:href="#ao"/><use transform="matrix(0.05,0,0,0.05,38.900000000000006,0)" xlink:href="#at"/><use transform="matrix(0.05,0,0,0.05,47.900000000000006,0)" xlink:href="#ao"/></g><path d="M0 4l72-265h28L28 4H0" id="aJ"/><use transform="matrix(0.05,0,0,0.05,0,0)" xlink:href="#aJ" id="q"/><g id="r"><use transform="matrix(0.05,0,0,0.05,0,0)" xlink:href="#am"/><use transform="matrix(0.05,0,0,0.05,12,0)" xlink:href="#aF"/></g><path d="M63-220v92h138v28H63V0H30v-248h175v28H63" id="aK"/><g id="s"><use transform="matrix(0.05,0,0,0.05,0,0)" xlink:href="#aK"/><use transform="matrix(0.05,0,0,0.05,10.950000000000001,0)" xlink:href="#ap"/></g><g id="t"><use transform="matrix(0.05,0,0,0.05,0,0)" xlink:href="#aH"/><use transform="matrix(0.05,0,0,0.05,10,0)" xlink:href="#aB"/><use transform="matrix(0.05,0,0,0.05,20,0)" xlink:href="#aC"/><use transform="matrix(0.05,0,0,0.05,30,0)" xlink:href="#az"/><use transform="matrix(0.05,0,0,0.05,35,0)" xlink:href="#ao"/></g><path d="M127-220V0H93v-220H8v-28h204v28h-85" id="aL"/><g id="u"><use transform="matrix(0.05,0,0,0.05,0,0)" xlink:href="#aL"/><use transform="matrix(0.05,0,0,0.05,8.950000000000001,0)" xlink:href="#aw"/><use transform="matrix(0.05,0,0,0.05,18.950000000000003,0)" xlink:href="#av"/><use transform="matrix(0.05,0,0,0.05,24.900000000000002,0)" xlink:href="#aI"/><use transform="matrix(0.05,0,0,0.05,39.85,0)" xlink:href="#ao"/><use transform="matrix(0.05,0,0,0.05,43.800000000000004,0)" xlink:href="#aC"/><use transform="matrix(0.05,0,0,0.05,53.800000000000004,0)" xlink:href="#ap"/></g><g id="v"><use transform="matrix(0.05,0,0,0.05,0,0)" xlink:href="#aF"/><use transform="matrix(0.05,0,0,0.05,5,0)" xlink:href="#aC"/><use transform="matrix(0.05,0,0,0.05,15,0)" xlink:href="#ay"/><use transform="matrix(0.05,0,0,0.05,24,0)" xlink:href="#aw"/><use transform="matrix(0.05,0,0,0.05,34,0)" xlink:href="#ax"/><use transform="matrix(0.05,0,0,0.05,44,0)" xlink:href="#aB"/><use transform="matrix(0.05,0,0,0.05,54,0)" xlink:href="#aw"/></g><g id="w"><use transform="matrix(0.05,0,0,0.05,0,0)" xlink:href="#ax"/><use transform="matrix(0.05,0,0,0.05,10,0)" xlink:href="#ao"/><use transform="matrix(0.05,0,0,0.05,13.949999999999998,0)" xlink:href="#as"/><use transform="matrix(0.05,0,0,0.05,23.95,0)" xlink:href="#at"/><use transform="matrix(0.05,0,0,0.05,32.95,0)" xlink:href="#ap"/><use transform="matrix(0.05,0,0,0.05,42.95,0)" xlink:href="#az"/><use transform="matrix(0.05,0,0,0.05,47.95,0)" xlink:href="#as"/><use transform="matrix(0.05,0,0,0.05,57.95,0)" xlink:href="#av"/><use transform="matrix(0.05,0,0,0.05,63.900000000000006,0)" xlink:href="#ao"/></g><g id="x"><use transform="matrix(0.05,0,0,0.05,0,0)" xlink:href="#am"/><use transform="matrix(0.05,0,0,0.05,12,0)" xlink:href="#az"/><use transform="matrix(0.05,0,0,0.05,17,0)" xlink:href="#az"/><use transform="matrix(0.05,0,0,0.05,22,0)" xlink:href="#ap"/><use transform="matrix(0.05,0,0,0.05,32,0)" xlink:href="#at"/><use transform="matrix(0.05,0,0,0.05,41,0)" xlink:href="#at"/><use transform="matrix(0.05,0,0,0.05,50,0)" xlink:href="#ap"/></g><g id="y"><use transform="matrix(0.05,0,0,0.05,0,0)" xlink:href="#ao"/><use transform="matrix(0.05,0,0,0.05,3.95,0)" xlink:href="#aq"/></g><g id="z"><use transform="matrix(0.05,0,0,0.05,0,0)" xlink:href="#ax"/><use transform="matrix(0.05,0,0,0.05,10,0)" xlink:href="#ao"/><use transform="matrix(0.05,0,0,0.05,13.949999999999998,0)" xlink:href="#as"/><use transform="matrix(0.05,0,0,0.05,23.95,0)" xlink:href="#at"/><use transform="matrix(0.05,0,0,0.05,32.95,0)" xlink:href="#ap"/><use transform="matrix(0.05,0,0,0.05,42.95,0)" xlink:href="#az"/><use transform="matrix(0.05,0,0,0.05,47.95,0)" xlink:href="#as"/><use transform="matrix(0.05,0,0,0.05,57.95,0)" xlink:href="#av"/><use transform="matrix(0.05,0,0,0.05,63.900000000000006,0)" xlink:href="#aw"/></g><path d="M137 0h-34L2-248h35l83 218 83-218h36" id="aM"/><g id="A"><use transform="matrix(0.05,0,0,0.05,0,0)" xlink:href="#aM"/><use transform="matrix(0.05,0,0,0.05,11.65,0)" xlink:href="#ao"/><use transform="matrix(0.05,0,0,0.05,15.600000000000001,0)" xlink:href="#aw"/><use transform="matrix(0.05,0,0,0.05,25.6,0)" xlink:href="#aC"/><use transform="matrix(0.05,0,0,0.05,35.6,0)" xlink:href="#aw"/></g><g id="B"><use transform="matrix(0.05,0,0,0.05,0,0)" xlink:href="#ap"/><use transform="matrix(0.05,0,0,0.05,10,0)" xlink:href="#az"/><use transform="matrix(0.05,0,0,0.05,15,0)" xlink:href="#az"/><use transform="matrix(0.05,0,0,0.05,20,0)" xlink:href="#ao"/><use transform="matrix(0.05,0,0,0.05,23.95,0)" xlink:href="#an"/><use transform="matrix(0.05,0,0,0.05,32.95,0)" xlink:href="#ap"/><use transform="matrix(0.05,0,0,0.05,42.95,0)" xlink:href="#az"/><use transform="matrix(0.05,0,0,0.05,47.95,0)" xlink:href="#as"/></g><g id="C"><use transform="matrix(0.05,0,0,0.05,0,0)" xlink:href="#ar"/><use transform="matrix(0.05,0,0,0.05,14,0)" xlink:href="#aw"/><use transform="matrix(0.05,0,0,0.05,24,0)" xlink:href="#aC"/><use transform="matrix(0.05,0,0,0.05,34,0)" xlink:href="#aw"/><use transform="matrix(0.05,0,0,0.05,44,0)" xlink:href="#av"/><use transform="matrix(0.05,0,0,0.05,49.95,0)" xlink:href="#ap"/></g><g id="D"><use transform="matrix(0.05,0,0,0.05,0,0)" xlink:href="#aq"/><use transform="matrix(0.05,0,0,0.05,3.95,0)" xlink:href="#aw"/></g><g id="E"><use transform="matrix(0.05,0,0,0.05,0,0)" xlink:href="#aI"/><use transform="matrix(0.05,0,0,0.05,14.950000000000001,0)" xlink:href="#aB"/><use transform="matrix(0.05,0,0,0.05,24.950000000000003,0)" xlink:href="#av"/><use transform="matrix(0.05,0,0,0.05,30.900000000000002,0)" xlink:href="#ap"/></g><g id="F"><use transform="matrix(0.05,0,0,0.05,0,0)" xlink:href="#at"/><use transform="matrix(0.05,0,0,0.05,9,0)" xlink:href="#ap"/><use transform="matrix(0.05,0,0,0.05,19,0)" xlink:href="#ay"/><use transform="matrix(0.05,0,0,0.05,28,0)" xlink:href="#aB"/><use transform="matrix(0.05,0,0,0.05,38,0)" xlink:href="#ap"/><use transform="matrix(0.05,0,0,0.05,48,0)" xlink:href="#aq"/><use transform="matrix(0.05,0,0,0.05,51.95,0)" xlink:href="#aI"/><use transform="matrix(0.05,0,0,0.05,66.9,0)" xlink:href="#aw"/><use transform="matrix(0.05,0,0,0.05,76.9,0)" xlink:href="#aC"/><use transform="matrix(0.05,0,0,0.05,86.9,0)" xlink:href="#az"/><use transform="matrix(0.05,0,0,0.05,91.9,0)" xlink:href="#aw"/></g><path d="M30-248c87 1 191-15 191 75 0 78-77 80-158 76V0H30v-248zm33 125c57 0 124 11 124-50 0-59-68-47-124-48v98" id="aN"/><g id="G"><use transform="matrix(0.05,0,0,0.05,0,0)" xlink:href="#aN"/><use transform="matrix(0.05,0,0,0.05,12,0)" xlink:href="#ap"/><use transform="matrix(0.05,0,0,0.05,22,0)" xlink:href="#av"/><use transform="matrix(0.05,0,0,0.05,27.950000000000003,0)" xlink:href="#ap"/></g><use transform="matrix(0.05,0,0,0.05,0,0)" xlink:href="#ao" id="H"/><g id="I"><use transform="matrix(0.05,0,0,0.05,0,0)" xlink:href="#at"/><use transform="matrix(0.05,0,0,0.05,9,0)" xlink:href="#as"/><use transform="matrix(0.05,0,0,0.05,19,0)" xlink:href="#aq"/><use transform="matrix(0.05,0,0,0.05,22.95,0)" xlink:href="#aH"/><use transform="matrix(0.05,0,0,0.05,32.95,0)" xlink:href="#ao"/></g><linearGradient gradientUnits="userSpaceOnUse" id="J" x1="284.97" y1="395.66" x2="284.97" y2="559.98"><stop offset="22%" stop-color="#32d4f5" stop-opacity=".8"/><stop offset="100%" stop-color="#198ab3" stop-opacity=".8"/></linearGradient><linearGradient gradientUnits="userSpaceOnUse" id="K" x1="280.17" y1="405.07" x2="292.06" y2="566.47"><stop offset="22%" stop-color="#32d4f5" stop-opacity=".8"/><stop offset="100%" stop-color="#198ab3" stop-opacity=".8"/></linearGradient><path d="M232-93c-1 65-40 97-104 97C67 4 28-28 28-90v-158h33c8 89-33 224 67 224 102 0 64-133 71-224h33v155" id="aO"/><g id="L"><use transform="matrix(0.05,0,0,0.05,0,0)" xlink:href="#aO"/><use transform="matrix(0.05,0,0,0.05,12.950000000000001,0)" xlink:href="#az"/><use transform="matrix(0.05,0,0,0.05,17.950000000000003,0)" xlink:href="#aw"/><use transform="matrix(0.05,0,0,0.05,27.950000000000003,0)" xlink:href="#aC"/><use transform="matrix(0.05,0,0,0.05,37.95,0)" xlink:href="#az"/><use transform="matrix(0.05,0,0,0.05,42.95,0)" xlink:href="#aw"/></g><linearGradient gradientUnits="userSpaceOnUse" id="M" x1="76.48" y1="829.46" x2="76.48" y2="993.78"><stop offset="22%" stop-color="#32d4f5" stop-opacity=".8"/><stop offset="100%" stop-color="#198ab3" stop-opacity=".8"/></linearGradient><linearGradient gradientUnits="userSpaceOnUse" id="N" x1="71.67" y1="838.87" x2="83.56" y2="1000.27"><stop offset="22%" stop-color="#32d4f5" stop-opacity=".8"/><stop offset="100%" stop-color="#198ab3" stop-opacity=".8"/></linearGradient><g id="O"><use transform="matrix(0.05,0,0,0.05,0,0)" xlink:href="#am"/><use transform="matrix(0.05,0,0,0.05,12,0)" xlink:href="#aF"/></g><linearGradient gradientUnits="userSpaceOnUse" id="P" x1="284.97" y1="972.5" x2="284.97" y2="1136.82"><stop offset="22%" stop-color="#32d4f5" stop-opacity=".8"/><stop offset="100%" stop-color="#198ab3" stop-opacity=".8"/></linearGradient><linearGradient gradientUnits="userSpaceOnUse" id="Q" x1="280.17" y1="981.91" x2="292.06" y2="1143.31"><stop offset="22%" stop-color="#32d4f5" stop-opacity=".8"/><stop offset="100%" stop-color="#198ab3" stop-opacity=".8"/></linearGradient><path d="M266 0h-40l-56-210L115 0H75L2-248h35L96-30l15-64 43-154h32l59 218 59-218h35" id="aP"/><g id="R"><use transform="matrix(0.05,0,0,0.05,0,0)" xlink:href="#aP"/><use transform="matrix(0.05,0,0,0.05,16.3,0)" xlink:href="#ap"/><use transform="matrix(0.05,0,0,0.05,26.3,0)" xlink:href="#aq"/><use transform="matrix(0.05,0,0,0.05,30.25,0)" xlink:href="#aq"/><use transform="matrix(0.05,0,0,0.05,34.2,0)" xlink:href="#ar"/><use transform="matrix(0.05,0,0,0.05,48.2,0)" xlink:href="#aw"/><use transform="matrix(0.05,0,0,0.05,58.2,0)" xlink:href="#aC"/><use transform="matrix(0.05,0,0,0.05,68.2,0)" xlink:href="#aw"/><use transform="matrix(0.05,0,0,0.05,78.2,0)" xlink:href="#av"/><use transform="matrix(0.05,0,0,0.05,84.15,0)" xlink:href="#ap"/><use transform="matrix(0.05,0,0,0.05,94.15,0)" xlink:href="#az"/><use transform="matrix(0.05,0,0,0.05,99.15,0)" xlink:href="#as"/><use transform="matrix(0.05,0,0,0.05,109.15,0)" xlink:href="#av"/></g><linearGradient gradientUnits="userSpaceOnUse" id="S" x1="284.97" y1="751.7" x2="284.97" y2="916.01"><stop offset="22%" stop-color="#32d4f5" stop-opacity=".8"/><stop offset="100%" stop-color="#198ab3" stop-opacity=".8"/></linearGradient><linearGradient gradientUnits="userSpaceOnUse" id="T" x1="280.17" y1="761.11" x2="292.06" y2="922.5"><stop offset="22%" stop-color="#32d4f5" stop-opacity=".8"/><stop offset="100%" stop-color="#198ab3" stop-opacity=".8"/></linearGradient><path d="M190 0L58-211 59 0H30v-248h39L202-35l-2-213h31V0h-41" id="aQ"/><g id="U"><use transform="matrix(0.05,0,0,0.05,0,0)" xlink:href="#aQ"/><use transform="matrix(0.05,0,0,0.05,12.950000000000001,0)" xlink:href="#aw"/><use transform="matrix(0.05,0,0,0.05,22.950000000000003,0)" xlink:href="#aI"/><use transform="matrix(0.05,0,0,0.05,37.900000000000006,0)" xlink:href="#ao"/><use transform="matrix(0.05,0,0,0.05,41.85000000000001,0)" xlink:href="#at"/><use transform="matrix(0.05,0,0,0.05,50.85000000000001,0)" xlink:href="#as"/></g><path d="M30 0v-248h33v221h125V0H30" id="aR"/><g id="V"><use transform="matrix(0.05,0,0,0.05,0,0)" xlink:href="#aR"/><use transform="matrix(0.05,0,0,0.05,10,0)" xlink:href="#as"/><use transform="matrix(0.05,0,0,0.05,20,0)" xlink:href="#ax"/><use transform="matrix(0.05,0,0,0.05,30,0)" xlink:href="#ao"/><use transform="matrix(0.05,0,0,0.05,33.95,0)" xlink:href="#aC"/></g><g id="W"><use transform="matrix(0.05,0,0,0.05,0,0)" xlink:href="#au"/><use transform="matrix(0.05,0,0,0.05,12,0)" xlink:href="#ao"/><use transform="matrix(0.05,0,0,0.05,15.949999999999998,0)" xlink:href="#ax"/><use transform="matrix(0.05,0,0,0.05,25.950000000000003,0)" xlink:href="#aC"/></g><g id="X"><use transform="matrix(0.05,0,0,0.05,0,0)" xlink:href="#aO"/><use transform="matrix(0.05,0,0,0.05,12.950000000000001,0)" xlink:href="#aH"/></g><path d="M140-251c81 0 123 46 123 126C263-46 219 4 140 4 59 4 17-45 17-125s42-126 123-126zm0 227c63 0 89-41 89-101s-29-99-89-99c-61 0-89 39-89 99S79-25 140-24" id="aS"/><g id="Y"><use transform="matrix(0.05,0,0,0.05,0,0)" xlink:href="#aS"/><use transform="matrix(0.05,0,0,0.05,14,0)" xlink:href="#ax"/><use transform="matrix(0.05,0,0,0.05,24,0)" xlink:href="#aC"/><use transform="matrix(0.05,0,0,0.05,34,0)" xlink:href="#ao"/></g><path d="M126-127c33 6 58 20 58 59 0 88-139 92-164 29-3-8-5-16-6-25l32-3c6 27 21 44 54 44 32 0 52-15 52-46 0-38-36-46-79-43v-28c39 1 72-4 72-42 0-27-17-43-46-43-28 0-47 15-49 41l-32-3c6-42 35-63 81-64 48-1 79 21 79 65 0 36-21 52-52 59" id="aT"/><path d="M101-251c68 0 85 55 85 127S166 4 100 4C33 4 14-52 14-124c0-73 17-127 87-127zm-1 229c47 0 54-49 54-102s-4-102-53-102c-51 0-55 48-55 102 0 53 5 102 54 102" id="aU"/><g id="Z"><use transform="matrix(0.05,0,0,0.05,0,0)" xlink:href="#aT"/><use transform="matrix(0.05,0,0,0.05,10,0)" xlink:href="#aU"/></g><path d="M85-194c31 0 48 13 60 33l-1-100h32l1 261h-30c-2-10 0-23-3-31C134-8 116 4 85 4 32 4 16-35 15-94c0-66 23-100 70-100zm9 24c-40 0-46 34-46 75 0 40 6 74 45 74 42 0 51-32 51-76 0-42-9-74-50-73" id="aV"/><g id="aa"><use transform="matrix(0.05,0,0,0.05,0,0)" xlink:href="#ay"/><use transform="matrix(0.05,0,0,0.05,9,0)" xlink:href="#aw"/><use transform="matrix(0.05,0,0,0.05,19,0)" xlink:href="#at"/><use transform="matrix(0.05,0,0,0.05,28,0)" xlink:href="#as"/><use transform="matrix(0.05,0,0,0.05,38,0)" xlink:href="#aC"/><use transform="matrix(0.05,0,0,0.05,48,0)" xlink:href="#aV"/><use transform="matrix(0.05,0,0,0.05,58,0)" xlink:href="#ao"/></g><g id="ab"><use transform="matrix(0.05,0,0,0.05,0,0)" xlink:href="#aq"/><use transform="matrix(0.05,0,0,0.05,3.95,0)" xlink:href="#aw"/></g><g id="ac"><use transform="matrix(0.05,0,0,0.05,0,0)" xlink:href="#aI"/><use transform="matrix(0.05,0,0,0.05,14.950000000000001,0)" xlink:href="#aB"/><use transform="matrix(0.05,0,0,0.05,24.950000000000003,0)" xlink:href="#av"/><use transform="matrix(0.05,0,0,0.05,30.900000000000002,0)" xlink:href="#ap"/></g><g id="ad"><use transform="matrix(0.05,0,0,0.05,0,0)" xlink:href="#an"/><use transform="matrix(0.05,0,0,0.05,9,0)" xlink:href="#aw"/><use transform="matrix(0.05,0,0,0.05,19,0)" xlink:href="#aC"/><use transform="matrix(0.05,0,0,0.05,29,0)" xlink:href="#ax"/><use transform="matrix(0.05,0,0,0.05,39,0)" xlink:href="#as"/><use transform="matrix(0.05,0,0,0.05,49,0)" xlink:href="#aC"/><use transform="matrix(0.05,0,0,0.05,59,0)" xlink:href="#as"/></g><g id="ae"><use transform="matrix(0.05,0,0,0.05,0,0)" xlink:href="#av"/><use transform="matrix(0.05,0,0,0.05,5.95,0)" xlink:href="#ao"/><use transform="matrix(0.05,0,0,0.05,9.9,0)" xlink:href="#ax"/><use transform="matrix(0.05,0,0,0.05,19.9,0)" xlink:href="#aw"/><use transform="matrix(0.05,0,0,0.05,29.899999999999995,0)" xlink:href="#aC"/><use transform="matrix(0.05,0,0,0.05,39.9,0)" xlink:href="#aw"/><use transform="matrix(0.05,0,0,0.05,49.9,0)" xlink:href="#av"/><use transform="matrix(0.05,0,0,0.05,55.85,0)" xlink:href="#ap"/><use transform="matrix(0.05,0,0,0.05,65.85,0)" xlink:href="#az"/><use transform="matrix(0.05,0,0,0.05,70.85,0)" xlink:href="#aw"/></g></defs></g></svg>